# xmcd
#
# Track frame offsets: 
#        150
#        12290
#        36589
#        49892
#        68437
#        97952
#        111256
#        126223
#        139674
#        152426
#        165204
#        170282
#        184671
#        186188
#        195556
#        211347
#        213371
#        227693
#        229695
#        245818
#        260330
#        275107
#        290542
#        305630
#        320693
#        335520
#
# Disc length: 4671 seconds
#
# Revision: 0
# Processed by: cddbd v1.5.2PL0 Copyright (c) Steve Scherf et al.
# Submitted via: ExactAudioCopy v0.95b3
#
DISCID=7a123d1a
DTITLE=Elvis Presley  - American Sound - Disc 08 - PC 88  
DYEAR=1900
DGENRE=
TTITLE0=Do You Know Who I Am? - Take 1 - complete
TTITLE1=Do You Know Who I Am? - Take 2 - rehearsal, 3 false starts and c
TTITLE1=omplete
TTITLE2=Do You Know Who I Am? - Take 3 - breakdown
TTITLE3=Do You Know Who I Am? - Take 4 - 3 false starts and complete
TTITLE4=Do You Know Who I Am? - Take 5 - 6 false starts and complete
TTITLE5=Do You Know Who I Am? - Take 6 - breakdown
TTITLE6=Do You Know Who I Am? - Take 7 - master
TTITLE7=Do You Know Who I Am?  +vocal repair and harmony vocals Feb 22nd
TTITLE8=Do You Know Who I Am?  +string and backing vocals March 25th
TTITLE9=Kentucky Rain - Take 1 - false start and breakdown
TTITLE10=Kentucky Rain - Take 2 - 4 false starts
TTITLE11=Kentucky Rain - Take 3 - complete
TTITLE12=Kentucky Rain - Take 4 - false start
TTITLE13=Kentucky Rain - Take 5 - false start and breakdown
TTITLE14=Kentucky Rain - Take 7 - complete
TTITLE15=Kentucky Rain - Take 7a - rehearsal
TTITLE16=Kentucky Rain - Take 8 - false start
TTITLE17=Kentucky Rain - Take 8a - 4 false starts
TTITLE18=Kentucky Rain - Take 9 - complete
TTITLE19=Kentucky Rain - Take 10 - master
TTITLE20=Kentucky Rain  +strings and brass March 18th - backing vocals Ma
TTITLE20=rch 25th
TTITLE21=Kentucky Rain - Quad remix
TTITLE22=Kentucky Rain - Mono remix
TTITLE23=Kentucky Rain - 1980 remix
TTITLE24=Kentucky Rain - 1987 remix
TTITLE25=Kentucky Rain - 2003 remix
EXTD=
EXTT0=
EXTT1=
EXTT2=
EXTT3=
EXTT4=
EXTT5=
EXTT6=
EXTT7=
EXTT8=
EXTT9=
EXTT10=
EXTT11=
EXTT12=
EXTT13=
EXTT14=
EXTT15=
EXTT16=
EXTT17=
EXTT18=
EXTT19=
EXTT20=
EXTT21=
EXTT22=
EXTT23=
EXTT24=
EXTT25=
PLAYORDER=
